<svg xmlns="http://www.w3.org/2000/svg"  viewBox="0 0 64 64" width="64px" height="64px" baseProfile="basic"><path fill="#ffce29" d="M54,27.652h-4.058c-0.456-1.885-1.198-3.653-2.182-5.263l2.871-2.871	c1.172-1.172,1.172-3.071,0-4.243l-1.906-1.906c-1.172-1.172-3.071-1.172-4.243,0l-2.871,2.871c-1.61-0.984-3.378-1.727-5.263-2.182	V10c0-1.657-1.343-3-3-3h-2.696c-1.657,0-3,1.343-3,3v4.058c-1.885,0.456-3.653,1.198-5.263,2.182l-2.871-2.871	c-1.172-1.172-3.071-1.172-4.243,0l-1.906,1.906c-1.172,1.172-1.172,3.071,0,4.243l2.871,2.871c-0.984,1.61-1.727,3.378-2.182,5.263	H10c-1.657,0-3,1.343-3,3v2.696c0,1.657,1.343,3,3,3h4.058c0.456,1.885,1.198,3.653,2.182,5.263l-2.871,2.871	c-1.172,1.172-1.172,3.071,0,4.243l1.906,1.906c1.172,1.172,3.071,1.172,4.243,0l2.871-2.871c1.61,0.984,3.378,1.727,5.263,2.182V54	c0,1.657,1.343,3,3,3h2.696c1.657,0,3-1.343,3-3v-4.058c1.885-0.456,3.653-1.198,5.263-2.182l2.871,2.871	c1.172,1.172,3.071,1.172,4.243,0l1.906-1.906c1.172-1.172,1.172-3.071,0-4.243l-2.871-2.871c0.984-1.61,1.727-3.378,2.182-5.263H54	c1.657,0,3-1.343,3-3v-2.696C57,28.995,55.657,27.652,54,27.652z M32,38c-3.314,0-6-2.686-6-6c0-3.314,2.686-6,6-6s6,2.686,6,6	C38,35.314,35.314,38,32,38z"/><ellipse cx="32" cy="61" opacity=".3" rx="19" ry="3"/><path fill="#fff" d="M29.656,18.198c0.753-0.127,1.462-0.476,1.934-1.077 c0.669-0.852,1.063-1.917,1.063-3.063V10c0-1.131-0.39-2.162-1.023-3h-0.977c-1.657,0-3,1.343-3,3v4.058 c-1.885,0.456-3.653,1.198-5.263,2.182l-2.871-2.871c-1.172-1.172-3.071-1.172-4.243,0l-1.906,1.906 c-1.172,1.172-1.172,3.071,0,4.243l2.871,2.871c-0.984,1.61-1.727,3.378-2.182,5.263H10c-1.657,0-3,1.343-3,3v0.977 c0.838,0.633,1.869,1.023,3,1.023h4.058c1.145,0,2.211-0.394,3.063-1.063c0.601-0.472,0.95-1.18,1.077-1.934 C19.185,23.803,23.803,19.185,29.656,18.198z" opacity=".3"/><path d="M54,31.348h-4.058c-1.145,0-2.211,0.394-3.063,1.063c-0.601,0.472-0.95,1.18-1.077,1.934 c-0.987,5.853-5.605,10.471-11.458,11.458c-0.753,0.127-1.462,0.476-1.934,1.077c-0.669,0.852-1.063,1.917-1.063,3.063V54 c0,1.131,0.39,2.162,1.023,3h0.977c1.657,0,3-1.343,3-3v-4.058c1.885-0.456,3.653-1.198,5.263-2.182l2.871,2.871 c1.172,1.172,3.071,1.172,4.243,0l1.906-1.906c1.172-1.172,1.172-3.071,0-4.243l-2.871-2.871c0.984-1.61,1.727-3.378,2.182-5.263 H54c1.657,0,3-1.343,3-3V32.37C56.162,31.737,55.131,31.348,54,31.348z" opacity=".15"/><path fill="none" stroke="#fff" stroke-linecap="round" stroke-linejoin="round" stroke-miterlimit="10" stroke-width="3" d="M18.122,25.039c1.423-2.967,3.826-5.374,6.789-6.803"/><circle cx="32" cy="32" r="10.5" fill="none" stroke="orange" stroke-miterlimit="10" stroke-width="3"/></svg>